<svg width="22" height="17" viewBox="0 0 22 17" fill="none" xmlns="http://www.w3.org/2000/svg">
<path d="M8.00012 16.986C6.54417 16.8997 5.1349 16.4403 3.90786 15.6519C2.68082 14.8635 1.67729 13.7726 0.993803 12.4842C0.310314 11.1957 -0.0301429 9.75308 0.00517907 8.295C0.040501 6.83693 0.450413 5.41247 1.19549 4.15864C1.94056 2.9048 2.99574 1.86378 4.25951 1.1357C5.52329 0.407621 6.95315 0.0169773 8.41157 0.00134297C9.86999 -0.0142914 11.3079 0.34561 12.587 1.04643C13.8661 1.74725 14.9433 2.76541 15.7151 4.00298C17.3776 4.05609 18.9564 4.74448 20.1267 5.92646C21.2969 7.10844 21.9695 8.69407 22.006 10.357C22.0425 12.0199 21.4402 13.6335 20.323 14.8657C19.2057 16.0979 17.6586 16.855 16.0001 16.981V17H8.00012V16.986Z" fill="#C5C5C5"/>
</svg>
