<svg width="20" height="22" viewBox="0 0 20 22" fill="none" xmlns="http://www.w3.org/2000/svg">
<path d="M8.92728 13.792C8.96129 13.6651 9.01995 13.5462 9.09992 13.442C9.17989 13.3379 9.2796 13.2504 9.39335 13.1848C9.5071 13.1191 9.63267 13.0765 9.76289 13.0594C9.89311 13.0423 10.0254 13.051 10.1523 13.085C10.2791 13.119 10.398 13.1777 10.5022 13.2576C10.6064 13.3376 10.6938 13.4373 10.7595 13.5511C10.8251 13.6648 10.8677 13.7904 10.8849 13.9206C10.902 14.0508 10.8933 14.1831 10.8593 14.31L10.6003 15.276C10.5316 15.5322 10.3639 15.7506 10.1342 15.8832C9.90447 16.0158 9.63147 16.0517 9.37528 15.983C9.11908 15.9143 8.90066 15.7467 8.76807 15.5169C8.63548 15.2872 8.59958 15.0142 8.66828 14.758L8.92728 13.792ZM9.50328 3.07816e-07C10.8257 -0.000406583 12.1169 0.402586 13.2043 1.15518C14.2918 1.90778 15.1238 2.97417 15.5893 4.212C16.9886 4.5979 18.2006 5.47782 19.0009 6.6888C19.8012 7.89978 20.1356 9.35975 19.942 10.7983C19.7485 12.2369 19.0401 13.5566 17.9482 14.513C16.8563 15.4694 15.4548 15.9977 14.0033 16H12.4693C12.4919 15.9327 12.5129 15.8637 12.5323 15.793L12.7913 14.828C12.9972 14.0594 12.8894 13.2405 12.4915 12.5514C12.2945 12.2102 12.0323 11.9111 11.7197 11.6713C11.4071 11.4314 11.0503 11.2555 10.6698 11.1535C9.90118 10.9476 9.08225 11.0554 8.39315 11.4532C7.70405 11.8511 7.20122 12.5064 6.99528 13.275L6.73628 14.241C6.60014 14.7494 6.60014 15.2846 6.73628 15.793C6.67008 15.859 6.60702 15.9281 6.54728 16H5.00328C3.85399 16.0008 2.73953 15.6056 1.84747 14.8809C0.955411 14.1563 0.340222 13.1465 0.105445 12.0214C-0.129332 10.8964 0.0306373 9.72476 0.558429 8.70383C1.08622 7.6829 1.94961 6.87496 3.00328 6.416C3.02537 4.70669 3.71993 3.07489 4.93653 1.87401C6.15313 0.673134 7.79382 -0.000142442 9.50328 3.07816e-07ZM9.82328 18.174C9.86136 18.0459 9.8734 17.9116 9.85869 17.7788C9.84397 17.646 9.8028 17.5175 9.73761 17.4009C9.67241 17.2843 9.58451 17.1819 9.4791 17.0999C9.37368 17.0178 9.2529 16.9577 9.12386 16.9231C8.99483 16.8885 8.86017 16.8801 8.72784 16.8983C8.5955 16.9166 8.46817 16.9613 8.35337 17.0296C8.23857 17.0979 8.13862 17.1885 8.05942 17.2961C7.98023 17.4037 7.92339 17.5261 7.89228 17.656L7.63328 18.622C7.56458 18.8782 7.60048 19.1512 7.73307 19.3809C7.86566 19.6107 8.08408 19.7783 8.34028 19.847C8.59647 19.9157 8.86947 19.8798 9.0992 19.7472C9.32893 19.6146 9.49659 19.3962 9.56528 19.14L9.82328 18.174Z" fill="#C5C5C5"/>
</svg>
