<svg width="20" height="22" viewBox="0 0 20 22" fill="none" xmlns="http://www.w3.org/2000/svg">
<path d="M2.96872 6.42257C2.98678 4.9065 3.53426 3.44445 4.51642 2.28939C5.49858 1.13434 6.85362 0.358965 8.34707 0.0974396C9.84052 -0.164086 11.3784 0.104692 12.6946 0.857266C14.0108 1.60984 15.0226 2.79885 15.5547 4.21857C16.9226 4.5932 18.1135 5.44026 18.9162 6.60947C19.719 7.77868 20.0816 9.19444 19.9397 10.6056C19.9151 10.8526 19.7996 11.0816 19.6155 11.2482C19.4314 11.4147 19.192 11.5068 18.9437 11.5066H0.999718C0.857951 11.5065 0.717813 11.4763 0.588599 11.418C0.459385 11.3597 0.344049 11.2746 0.25024 11.1683C0.156432 11.062 0.0862951 10.937 0.044483 10.8015C0.00267085 10.666 -0.0098612 10.5232 0.00771789 10.3826C0.115648 9.52245 0.445342 8.70517 0.964447 8.01093C1.48355 7.31669 2.17423 6.76933 2.96872 6.42257ZM0.968718 14.0066C0.968718 13.7414 1.07407 13.487 1.26161 13.2995C1.44915 13.1119 1.7035 13.0066 1.96872 13.0066H17.9687C18.2339 13.0066 18.4883 13.1119 18.6758 13.2995C18.8634 13.487 18.9687 13.7414 18.9687 14.0066C18.9687 14.2718 18.8634 14.5261 18.6758 14.7137C18.4883 14.9012 18.2339 15.0066 17.9687 15.0066H1.96872C1.7035 15.0066 1.44915 14.9012 1.26161 14.7137C1.07407 14.5261 0.968718 14.2718 0.968718 14.0066ZM5.96872 17.0066C5.7035 17.0066 5.44915 17.1119 5.26161 17.2995C5.07408 17.487 4.96872 17.7414 4.96872 18.0066C4.96872 18.2718 5.07408 18.5261 5.26161 18.7137C5.44915 18.9012 5.7035 19.0066 5.96872 19.0066H14.9687C15.2339 19.0066 15.4883 18.9012 15.6758 18.7137C15.8634 18.5261 15.9687 18.2718 15.9687 18.0066C15.9687 17.7414 15.8634 17.487 15.6758 17.2995C15.4883 17.1119 15.2339 17.0066 14.9687 17.0066H5.96872Z" fill="#C5C5C5"/>
</svg>
