<svg width="10" height="13" viewBox="0 0 10 13" fill="none" xmlns="http://www.w3.org/2000/svg">
<path d="M8.738 5.9965L5.4235 0.718503C5.37541 0.651008 5.31188 0.595984 5.23822 0.558018C5.16455 0.520053 5.08287 0.500244 5 0.500244C4.91713 0.500244 4.83545 0.520053 4.76178 0.558018C4.68812 0.595984 4.62459 0.651008 4.5765 0.718503L1.247 6.022C0.78483 6.76812 0.527198 7.62276 0.5 8.5C0.5 9.69348 0.974106 10.8381 1.81802 11.682C2.66193 12.5259 3.80653 13 5 13C6.19347 13 7.33807 12.5259 8.18198 11.682C9.02589 10.8381 9.5 9.69348 9.5 8.5C9.47133 7.61289 9.20843 6.74916 8.738 5.9965ZM5 12C4.07215 11.9987 3.18268 11.6295 2.52659 10.9734C1.8705 10.3173 1.50132 9.42785 1.5 8.5C1.52709 7.80089 1.73708 7.1211 2.109 6.5285L2.5765 5.7835L7.6135 10.8205C7.28629 11.1911 6.8841 11.4879 6.43354 11.6913C5.98298 11.8947 5.49435 11.9996 5 12Z" fill="#C5C5C5"/>
</svg>
