<svg width="20" height="22" viewBox="0 0 20 22" fill="none" xmlns="http://www.w3.org/2000/svg">
<path d="M9.99996 11C10.2652 11 10.5195 11.1054 10.7071 11.2929C10.8946 11.4804 11 11.7348 11 12V13.268L12.098 12.634C12.2117 12.5673 12.3376 12.5238 12.4682 12.5059C12.5989 12.488 12.7318 12.4962 12.8593 12.5299C12.9868 12.5636 13.1064 12.6222 13.2111 12.7023C13.3159 12.7824 13.4038 12.8825 13.4697 12.9967C13.5357 13.1109 13.5784 13.237 13.5954 13.3678C13.6124 13.4986 13.6033 13.6314 13.5688 13.7587C13.5342 13.886 13.4748 14.0051 13.394 14.1094C13.3132 14.2136 13.2126 14.3008 13.098 14.366L12 15L13.098 15.634C13.2126 15.6992 13.3132 15.7864 13.394 15.8906C13.4748 15.9949 13.5342 16.114 13.5688 16.2413C13.6033 16.3686 13.6124 16.5014 13.5954 16.6322C13.5784 16.763 13.5357 16.8891 13.4697 17.0033C13.4038 17.1175 13.3159 17.2176 13.2111 17.2977C13.1064 17.3778 12.9868 17.4364 12.8593 17.4701C12.7318 17.5038 12.5989 17.512 12.4682 17.4941C12.3376 17.4762 12.2117 17.4327 12.098 17.366L11 16.732V18C11 18.2652 10.8946 18.5196 10.7071 18.7071C10.5195 18.8946 10.2652 19 9.99996 19C9.73474 19 9.48039 18.8946 9.29285 18.7071C9.10532 18.5196 8.99996 18.2652 8.99996 18V16.732L7.90196 17.366C7.78819 17.4327 7.66235 17.4762 7.53168 17.4941C7.40102 17.512 7.26811 17.5038 7.14061 17.4701C7.01311 17.4364 6.89354 17.3778 6.78878 17.2977C6.68402 17.2176 6.59614 17.1175 6.53019 17.0033C6.46425 16.8891 6.42155 16.763 6.40456 16.6322C6.38756 16.5014 6.3966 16.3686 6.43115 16.2413C6.4657 16.114 6.52509 15.9949 6.60589 15.8906C6.68669 15.7864 6.78731 15.6992 6.90196 15.634L7.99996 15L6.90196 14.366C6.78731 14.3008 6.68669 14.2136 6.60589 14.1094C6.52509 14.0051 6.4657 13.886 6.43115 13.7587C6.3966 13.6314 6.38756 13.4986 6.40456 13.3678C6.42155 13.237 6.46425 13.1109 6.53019 12.9967C6.59614 12.8825 6.68402 12.7824 6.78878 12.7023C6.89354 12.6222 7.01311 12.5636 7.14061 12.5299C7.26811 12.4962 7.40102 12.488 7.53168 12.5059C7.66235 12.5238 7.78819 12.5673 7.90196 12.634L8.99996 13.268V12C8.99996 11.7348 9.10532 11.4804 9.29285 11.2929C9.48039 11.1054 9.73474 11 9.99996 11ZM9.49996 3.07816e-07C10.8224 -0.000406583 12.1136 0.402586 13.201 1.15518C14.2884 1.90778 15.1204 2.97417 15.586 4.212C16.8602 4.56159 17.9835 5.32189 18.7815 6.37497C19.5796 7.42805 20.0079 8.71506 19.9999 10.0364C19.9919 11.3577 19.5481 12.6394 18.7374 13.6828C17.9267 14.7261 16.7943 15.4728 15.516 15.807C15.449 15.5239 15.3412 15.2521 15.196 15C15.4596 14.544 15.5985 14.0266 15.5986 13.4999C15.5988 12.9732 15.4602 12.4557 15.1968 11.9995C14.9335 11.5434 14.5546 11.1646 14.0984 10.9014C13.6422 10.6381 13.1247 10.4997 12.598 10.5C12.3348 10.0437 11.9562 9.66479 11.5001 9.40132C11.0441 9.13784 10.5267 8.99913 9.99996 8.99913C9.47326 8.99913 8.95584 9.13784 8.49977 9.40132C8.04371 9.66479 7.66507 10.0437 7.40196 10.5C6.87515 10.4995 6.35752 10.6378 5.90115 10.901C5.44479 11.1642 5.0658 11.5429 4.80232 11.9991C4.53885 12.4553 4.40019 12.9728 4.4003 13.4996C4.40041 14.0264 4.53929 14.5439 4.80296 15C4.62978 15.3004 4.51001 15.6286 4.44896 15.97C3.35366 15.8491 2.32896 15.3698 1.53414 14.6066C0.73932 13.8433 0.218901 12.8389 0.0537765 11.7494C-0.111348 10.6599 0.0880702 9.54636 0.621036 8.58187C1.154 7.61738 1.99066 6.85598 3.00096 6.416C3.02305 4.70687 3.71747 3.07521 4.93385 1.87436C6.15024 0.673514 7.79068 0.000120538 9.49996 3.07816e-07Z" fill="#C5C5C5"/>
</svg>
