<svg width="17" height="20" viewBox="0 0 17 20" fill="none" xmlns="http://www.w3.org/2000/svg">
<path d="M4 19C2.9 19 1.95833 18.6083 1.175 17.825C0.391667 17.0417 0 16.1 0 15C0 13.9 0.391667 12.9583 1.175 12.175C1.95833 11.3917 2.9 11 4 11C4.8 11 5.53767 11.2167 6.213 11.65C6.88833 12.0833 7.37567 12.675 7.675 13.425L7.925 14H8.525C9.225 14 9.81267 14.2417 10.288 14.725C10.7633 15.2083 11.0007 15.8 11 16.5C10.9993 17.2 10.7577 17.7917 10.275 18.275C9.79233 18.7583 9.20067 19 8.5 19H4ZM12.975 16.2C12.9083 15.15 12.5293 14.2417 11.838 13.475C11.1467 12.7083 10.2757 12.2333 9.225 12.05C8.70833 11.15 8.01267 10.4377 7.138 9.913C6.26333 9.38833 5.30067 9.084 4.25 9C4.68333 7.78333 5.425 6.81267 6.475 6.088C7.525 5.36333 8.7 5.00067 10 5C11.6667 5 13.0833 5.58333 14.25 6.75C15.4167 7.91667 16 9.33333 16 11C16 12.0833 15.7333 13.0877 15.2 14.013C14.6667 14.9383 13.925 15.6673 12.975 16.2ZM9 4V0H11V4H9ZM15.65 6.75L14.25 5.35L17.05 2.5L18.475 3.925L15.65 6.75ZM17 12V10H21V12H17ZM17.05 19.5L14.25 16.65L15.65 15.25L18.5 18.05L17.05 19.5ZM4.35 6.75L1.525 3.925L2.95 2.5L5.75 5.35L4.35 6.75Z" fill="#C5C5C5"/>
</svg>
