<svg width="20" height="22" viewBox="0 0 20 22" fill="none" xmlns="http://www.w3.org/2000/svg">
<path d="M9.99923 17C10.2644 17 10.5188 17.1054 10.7063 17.2929C10.8939 17.4804 10.9992 17.7348 10.9992 18V19C10.9992 19.2652 10.8939 19.5196 10.7063 19.7071C10.5188 19.8946 10.2644 20 9.99923 20C9.73401 20 9.47966 19.8946 9.29212 19.7071C9.10459 19.5196 8.99923 19.2652 8.99923 19V18C8.99923 17.7348 9.10459 17.4804 9.29212 17.2929C9.47966 17.1054 9.73401 17 9.99923 17ZM12.9992 15C13.2442 15 13.4806 15.09 13.6636 15.2527C13.8466 15.4155 13.9636 15.6397 13.9922 15.883L13.9992 16V17C13.9989 17.2549 13.9014 17.5 13.7264 17.6854C13.5514 17.8707 13.3123 17.9822 13.0578 17.9972C12.8034 18.0121 12.5529 17.9293 12.3574 17.7657C12.1619 17.6021 12.0363 17.3701 12.0062 17.117L11.9992 17V16C11.9992 15.7348 12.1046 15.4804 12.2921 15.2929C12.4797 15.1054 12.734 15 12.9992 15ZM6.99923 15C7.26445 15 7.5188 15.1054 7.70634 15.2929C7.89387 15.4804 7.99923 15.7348 7.99923 16V17C7.99923 17.2652 7.89387 17.5196 7.70634 17.7071C7.5188 17.8946 7.26445 18 6.99923 18C6.73401 18 6.47966 17.8946 6.29212 17.7071C6.10459 17.5196 5.99923 17.2652 5.99923 17V16C5.99923 15.7348 6.10459 15.4804 6.29212 15.2929C6.47966 15.1054 6.73401 15 6.99923 15ZM9.99923 13C10.2644 13 10.5188 13.1054 10.7063 13.2929C10.8939 13.4804 10.9992 13.7348 10.9992 14V15C10.9992 15.2652 10.8939 15.5196 10.7063 15.7071C10.5188 15.8946 10.2644 16 9.99923 16C9.73401 16 9.47966 15.8946 9.29212 15.7071C9.10459 15.5196 8.99923 15.2652 8.99923 15V14C8.99923 13.7348 9.10459 13.4804 9.29212 13.2929C9.47966 13.1054 9.73401 13 9.99923 13ZM9.49923 3.07816e-07C10.8217 -0.000406583 12.1128 0.402586 13.2003 1.15518C14.2877 1.90778 15.1197 2.97417 15.5852 4.212C16.7982 4.54462 17.8761 5.24991 18.6666 6.22826C19.4571 7.20661 19.9202 8.40858 19.9906 9.66439C20.061 10.9202 19.7351 12.1664 19.0589 13.227C18.3828 14.2876 17.3905 15.1089 16.2222 15.575L15.9992 15.659V12.5C15.9992 11.8915 15.8406 11.2934 15.5389 10.7649C15.2372 10.2364 14.803 9.79569 14.279 9.48624C13.755 9.17679 13.1594 9.00932 12.5509 9.00033C11.9424 8.99134 11.3421 9.14116 10.8092 9.435C10.5602 9.56892 10.2819 9.63901 9.99923 9.63901C9.71652 9.63901 9.43821 9.56892 9.18923 9.435C8.67054 9.14873 8.08767 8.9988 7.49522 8.99927C6.90278 8.99974 6.32015 9.15059 5.80191 9.43769C5.28368 9.72478 4.8468 10.1387 4.53221 10.6408C4.21762 11.1428 4.03561 11.7164 4.00323 12.308L3.99923 12.5V15.9C2.95827 15.687 2.01219 15.148 1.29809 14.3612C0.584 13.5745 0.138997 12.5807 0.0275811 11.5241C-0.083835 10.4674 0.144125 9.40269 0.678421 8.48427C1.21272 7.56585 2.02559 6.84143 2.99923 6.416C3.02132 4.70669 3.71588 3.07489 4.93248 1.87401C6.14908 0.673134 7.78978 -0.000142442 9.49923 3.07816e-07ZM6.99923 11C7.26445 11 7.5188 11.1054 7.70634 11.2929C7.89387 11.4804 7.99923 11.7348 7.99923 12V13C7.99923 13.2652 7.89387 13.5196 7.70634 13.7071C7.5188 13.8946 7.26445 14 6.99923 14C6.73401 14 6.47966 13.8946 6.29212 13.7071C6.10459 13.5196 5.99923 13.2652 5.99923 13V12C5.99923 11.7348 6.10459 11.4804 6.29212 11.2929C6.47966 11.1054 6.73401 11 6.99923 11ZM12.9992 11C13.2442 11 13.4806 11.09 13.6636 11.2527C13.8466 11.4155 13.9636 11.6397 13.9922 11.883L13.9992 12V13C13.9989 13.2549 13.9014 13.5 13.7264 13.6854C13.5514 13.8707 13.3123 13.9822 13.0578 13.9972C12.8034 14.0121 12.5529 13.9293 12.3574 13.7657C12.1619 13.6021 12.0363 13.3701 12.0062 13.117L11.9992 13V12C11.9992 11.7348 12.1046 11.4804 12.2921 11.2929C12.4797 11.1054 12.734 11 12.9992 11Z" fill="#C5C5C5"/>
</svg>
