<svg width="16" height="16" viewBox="0 0 16 16" fill="none" xmlns="http://www.w3.org/2000/svg">
<path d="M2.62492 11.5C2.69123 11.5 2.75482 11.5264 2.8017 11.5733C2.84858 11.6202 2.87492 11.6837 2.87492 11.75V12.32L3.37592 12.033C3.43335 12.002 3.50064 11.9947 3.56341 12.0126C3.62619 12.0305 3.67946 12.0723 3.71185 12.1289C3.74423 12.1856 3.75317 12.2527 3.73674 12.3159C3.72031 12.3791 3.67982 12.4333 3.62392 12.467L3.12892 12.75L3.62392 13.033C3.67982 13.0668 3.72031 13.121 3.73674 13.1842C3.75317 13.2474 3.74423 13.3145 3.71185 13.3711C3.67946 13.4278 3.62619 13.4696 3.56341 13.4875C3.50064 13.5054 3.43335 13.4981 3.37592 13.467L2.87492 13.181V13.75C2.87492 13.8163 2.84858 13.8799 2.8017 13.9268C2.75482 13.9737 2.69123 14 2.62492 14C2.55862 14 2.49503 13.9737 2.44815 13.9268C2.40126 13.8799 2.37492 13.8163 2.37492 13.75V13.18L1.87392 13.467C1.81649 13.4981 1.7492 13.5054 1.68643 13.4875C1.62366 13.4696 1.57039 13.4278 1.538 13.3711C1.50561 13.3145 1.49668 13.2474 1.51311 13.1842C1.52954 13.121 1.57003 13.0668 1.62592 13.033L2.12092 12.75L1.62592 12.467C1.57003 12.4333 1.52954 12.3791 1.51311 12.3159C1.49668 12.2527 1.50561 12.1856 1.538 12.1289C1.57039 12.0723 1.62366 12.0305 1.68643 12.0126C1.7492 11.9947 1.81649 12.002 1.87392 12.033L2.37492 12.319V11.75C2.37492 11.6837 2.40126 11.6202 2.44815 11.5733C2.49503 11.5264 2.55862 11.5 2.62492 11.5ZM5.37492 13.5C5.44123 13.5 5.50482 13.5264 5.5517 13.5733C5.59858 13.6202 5.62492 13.6837 5.62492 13.75V14.32L6.12492 14.033C6.18247 14 6.25079 13.9912 6.31483 14.0086C6.37887 14.0259 6.4334 14.068 6.46642 14.1255C6.49944 14.1831 6.50825 14.2514 6.4909 14.3155C6.47355 14.3795 6.43147 14.434 6.37392 14.467L5.87892 14.75L6.37392 15.033C6.42982 15.0668 6.47031 15.121 6.48674 15.1842C6.50317 15.2474 6.49423 15.3145 6.46185 15.3711C6.42946 15.4278 6.37619 15.4696 6.31342 15.4875C6.25064 15.5054 6.18335 15.4981 6.12592 15.467L5.62492 15.181V15.75C5.62492 15.8163 5.59858 15.8799 5.5517 15.9268C5.50482 15.9737 5.44123 16 5.37492 16C5.30862 16 5.24503 15.9737 5.19815 15.9268C5.15126 15.8799 5.12492 15.8163 5.12492 15.75V15.18L4.62392 15.467C4.56649 15.4981 4.4992 15.5054 4.43643 15.4875C4.37366 15.4696 4.32039 15.4278 4.288 15.3711C4.25561 15.3145 4.24668 15.2474 4.26311 15.1842C4.27954 15.121 4.32003 15.0668 4.37592 15.033L4.87092 14.75L4.37592 14.467C4.32003 14.4333 4.27954 14.3791 4.26311 14.3159C4.24668 14.2527 4.25561 14.1856 4.288 14.1289C4.32039 14.0723 4.37366 14.0305 4.43643 14.0126C4.4992 13.9947 4.56649 14.002 4.62392 14.033L5.12492 14.319V13.75C5.12492 13.6837 5.15126 13.6202 5.19815 13.5733C5.24503 13.5264 5.30862 13.5 5.37492 13.5ZM10.8749 13.5C10.9412 13.5 11.0048 13.5264 11.0517 13.5733C11.0986 13.6202 11.1249 13.6837 11.1249 13.75V14.32L11.6249 14.033C11.6534 14.0167 11.6849 14.0061 11.7174 14.0019C11.75 13.9977 11.7831 14 11.8148 14.0086C11.8465 14.0172 11.8763 14.0319 11.9023 14.052C11.9283 14.0721 11.9501 14.097 11.9664 14.1255C11.9828 14.154 11.9933 14.1855 11.9975 14.2181C12.0017 14.2506 11.9995 14.2837 11.9909 14.3155C11.9823 14.3472 11.9676 14.3769 11.9475 14.4029C11.9274 14.4289 11.9024 14.4507 11.8739 14.467L11.3789 14.75L11.8739 15.033C11.9298 15.0668 11.9703 15.121 11.9867 15.1842C12.0032 15.2474 11.9942 15.3145 11.9618 15.3711C11.9295 15.4278 11.8762 15.4696 11.8134 15.4875C11.7506 15.5054 11.6834 15.4981 11.6259 15.467L11.1249 15.181V15.75C11.1249 15.8163 11.0986 15.8799 11.0517 15.9268C11.0048 15.9737 10.9412 16 10.8749 16C10.8086 16 10.745 15.9737 10.6981 15.9268C10.6513 15.8799 10.6249 15.8163 10.6249 15.75V15.18L10.1239 15.467C10.0665 15.4981 9.9992 15.5054 9.93643 15.4875C9.87366 15.4696 9.82039 15.4278 9.788 15.3711C9.75561 15.3145 9.74668 15.2474 9.76311 15.1842C9.77954 15.121 9.82003 15.0668 9.87592 15.033L10.3709 14.75L9.87592 14.467C9.82003 14.4333 9.77954 14.3791 9.76311 14.3159C9.74668 14.2527 9.75561 14.1856 9.788 14.1289C9.82039 14.0723 9.87366 14.0305 9.93643 14.0126C9.9992 13.9947 10.0665 14.002 10.1239 14.033L10.6249 14.319V13.75C10.6249 13.6837 10.6513 13.6202 10.6981 13.5733C10.745 13.5264 10.8086 13.5 10.8749 13.5ZM8.12492 11.5C8.19123 11.5 8.25482 11.5264 8.3017 11.5733C8.34858 11.6202 8.37492 11.6837 8.37492 11.75V12.32L8.87492 12.033C8.93247 12 9.00079 11.9912 9.06483 12.0086C9.12887 12.0259 9.1834 12.068 9.21642 12.1255C9.24944 12.1831 9.25825 12.2514 9.2409 12.3155C9.22355 12.3795 9.18147 12.434 9.12392 12.467L8.62892 12.75L9.12392 13.033C9.17982 13.0668 9.22031 13.121 9.23674 13.1842C9.25317 13.2474 9.24424 13.3145 9.21185 13.3711C9.17946 13.4278 9.12619 13.4696 9.06341 13.4875C9.00064 13.5054 8.93335 13.4981 8.87592 13.467L8.37492 13.181V13.75C8.37492 13.8163 8.34858 13.8799 8.3017 13.9268C8.25482 13.9737 8.19123 14 8.12492 14C8.05862 14 7.99503 13.9737 7.94815 13.9268C7.90126 13.8799 7.87492 13.8163 7.87492 13.75V13.18L7.37392 13.467C7.31649 13.4981 7.2492 13.5054 7.18643 13.4875C7.12366 13.4696 7.07039 13.4278 7.038 13.3711C7.00561 13.3145 6.99668 13.2474 7.01311 13.1842C7.02954 13.121 7.07003 13.0668 7.12592 13.033L7.62092 12.75L7.12592 12.467C7.07003 12.4333 7.02954 12.3791 7.01311 12.3159C6.99668 12.2527 7.00561 12.1856 7.038 12.1289C7.07039 12.0723 7.12366 12.0305 7.18643 12.0126C7.2492 11.9947 7.31649 12.002 7.37392 12.033L7.87492 12.319V11.75C7.87492 11.6837 7.90126 11.6202 7.94815 11.5733C7.99503 11.5264 8.05862 11.5 8.12492 11.5ZM13.6249 11.5C13.6912 11.5 13.7548 11.5264 13.8017 11.5733C13.8486 11.6202 13.8749 11.6837 13.8749 11.75V12.32L14.3749 12.033C14.4325 12 14.5008 11.9912 14.5648 12.0086C14.6289 12.0259 14.6834 12.068 14.7164 12.1255C14.7494 12.1831 14.7582 12.2514 14.7409 12.3155C14.7236 12.3795 14.6815 12.434 14.6239 12.467L14.1289 12.75L14.6239 13.033C14.6798 13.0668 14.7203 13.121 14.7367 13.1842C14.7532 13.2474 14.7442 13.3145 14.7118 13.3711C14.6795 13.4278 14.6262 13.4696 14.5634 13.4875C14.5006 13.5054 14.4334 13.4981 14.3759 13.467L13.8749 13.181V13.75C13.8749 13.8163 13.8486 13.8799 13.8017 13.9268C13.7548 13.9737 13.6912 14 13.6249 14C13.5586 14 13.495 13.9737 13.4481 13.9268C13.4013 13.8799 13.3749 13.8163 13.3749 13.75V13.18L12.8739 13.467C12.8454 13.4843 12.8137 13.4956 12.7807 13.5004C12.7477 13.5052 12.7141 13.5033 12.6819 13.4949C12.6496 13.4865 12.6194 13.4718 12.5929 13.4515C12.5664 13.4313 12.5443 13.406 12.5277 13.377C12.5112 13.3481 12.5006 13.3161 12.4966 13.283C12.4926 13.25 12.4952 13.2164 12.5044 13.1844C12.5135 13.1523 12.529 13.1224 12.5499 13.0964C12.5707 13.0704 12.5966 13.0489 12.6259 13.033L13.1209 12.75L12.6259 12.467C12.57 12.4333 12.5295 12.3791 12.5131 12.3159C12.4967 12.2527 12.5056 12.1856 12.538 12.1289C12.5704 12.0723 12.6237 12.0305 12.6864 12.0126C12.7492 11.9947 12.8165 12.002 12.8739 12.033L13.3749 12.319V11.75C13.3749 11.6837 13.4013 11.6202 13.4481 11.5733C13.495 11.5264 13.5586 11.5 13.6249 11.5ZM13.4049 4.27704C13.1973 3.23021 12.6601 2.27725 11.8721 1.55752C11.0841 0.837792 10.0865 0.389031 9.02517 0.276853C7.96384 0.164676 6.89446 0.394967 5.97338 0.934054C5.05231 1.47314 4.32785 2.29275 3.90592 3.27304C3.43276 3.21854 2.95345 3.26118 2.49734 3.39835C2.04123 3.53553 1.61792 3.76435 1.25332 4.07082C0.888721 4.37729 0.59051 4.75495 0.376944 5.18067C0.163378 5.6064 0.0389514 6.07124 0.0112822 6.54672C-0.016387 7.02221 0.0532835 7.49834 0.216028 7.94597C0.378773 8.39359 0.631167 8.80329 0.957757 9.14998C1.28435 9.49667 1.67826 9.77305 2.11538 9.9622C2.5525 10.1514 3.02363 10.2493 3.49992 10.25H12.9999C13.761 10.2509 14.494 9.96246 15.0504 9.44312C15.6068 8.92377 15.945 8.21236 15.9965 7.453C16.048 6.69363 15.8089 5.94308 15.3277 5.35338C14.8465 4.76368 14.1592 4.37892 13.4049 4.27704Z" fill="#C5C5C5"/>
</svg>
