<svg width="16" height="16" viewBox="0 0 16 16" fill="none" xmlns="http://www.w3.org/2000/svg">
<path d="M12.6825 4.27816C12.4735 3.28777 11.9521 2.39063 11.195 1.71879C10.6335 1.21647 9.96122 0.853947 9.233 0.660787C8.50477 0.467628 7.74121 0.449294 7.00455 0.607281C6.2679 0.765269 5.57901 1.09511 4.99404 1.5699C4.40906 2.0447 3.94458 2.65101 3.63844 3.33941C1.89062 3.44254 0.5 4.89535 0.5 6.6666C0.5 8.50473 1.99719 10 3.8375 10H5.90969L5.50688 12.4179C5.49494 12.4895 5.49875 12.5628 5.51803 12.6328C5.53732 12.7028 5.57161 12.7678 5.61854 12.8232C5.66547 12.8786 5.72391 12.9231 5.78978 12.9537C5.85566 12.9842 5.92739 13 6 13H7V15C7.00018 15.1058 7.0339 15.2088 7.09631 15.2942C7.15871 15.3796 7.24659 15.443 7.34731 15.4753C7.44803 15.5076 7.5564 15.5071 7.65683 15.474C7.75727 15.4408 7.84459 15.3766 7.90625 15.2907L10.4062 11.7907C10.4596 11.7159 10.4914 11.628 10.4981 11.5364C10.5047 11.4448 10.4861 11.3532 10.4441 11.2715C10.4022 11.1899 10.3385 11.1213 10.2602 11.0734C10.1818 11.0255 10.0918 11.0002 10 11H9.14031L9.39031 10H12.6353C13.3881 9.99701 14.1093 9.69746 14.6427 9.16629C15.1762 8.63513 15.4788 7.91515 15.485 7.16241C15.4912 6.40966 15.2005 5.68479 14.6759 5.1449C14.1513 4.60501 13.4351 4.2936 12.6825 4.27816Z" fill="#C5C5C5"/>
</svg>
