<svg width="22" height="23" viewBox="0 0 22 23" fill="none" xmlns="http://www.w3.org/2000/svg">
<path fill-rule="evenodd" clip-rule="evenodd" d="M9.5 3.5C9.30534 3.49991 9.11489 3.55663 8.952 3.66321C8.78911 3.76979 8.66086 3.92159 8.583 4.1C8.50421 4.28057 8.39062 4.44385 8.24872 4.58052C8.10683 4.71719 7.9394 4.82457 7.75601 4.89654C7.57261 4.9685 7.37684 5.00364 7.17986 4.99995C6.98289 4.99625 6.78857 4.95379 6.608 4.875C6.42743 4.79621 6.26415 4.68262 6.12748 4.54073C5.99081 4.39883 5.88343 4.23141 5.81146 4.04801C5.7395 3.86461 5.70436 3.66884 5.70806 3.47186C5.71175 3.27489 5.75421 3.08057 5.833 2.9C6.12145 2.23908 6.5832 1.66844 7.16939 1.24844C7.75558 0.82845 8.44441 0.574735 9.16298 0.514146C9.88155 0.453556 10.6031 0.588347 11.2514 0.904254C11.8996 1.22016 12.4504 1.70543 12.8454 2.30872C13.2405 2.912 13.4651 3.61086 13.4955 4.33134C13.5259 5.05182 13.361 5.76712 13.0182 6.40154C12.6754 7.03597 12.1674 7.56592 11.5481 7.93532C10.9288 8.30472 10.2211 8.49983 9.5 8.5H4C3.60218 8.5 3.22064 8.34197 2.93934 8.06066C2.65804 7.77936 2.5 7.39783 2.5 7C2.5 6.60218 2.65804 6.22065 2.93934 5.93934C3.22064 5.65804 3.60218 5.5 4 5.5H9.5C9.76522 5.5 10.0196 5.39464 10.2071 5.20711C10.3946 5.01957 10.5 4.76522 10.5 4.5C10.5 4.23478 10.3946 3.98043 10.2071 3.79289C10.0196 3.60536 9.76522 3.5 9.5 3.5ZM17.5 7.5C17.3053 7.49991 17.1149 7.55663 16.952 7.66321C16.7891 7.76979 16.6609 7.92159 16.583 8.1C16.4239 8.46467 16.1264 8.7512 15.756 8.89654C15.3856 9.04188 14.9727 9.03413 14.608 8.875C14.2433 8.71587 13.9568 8.41839 13.8115 8.04801C13.6661 7.67763 13.6739 7.26467 13.833 6.9C14.1214 6.23908 14.5832 5.66844 15.1694 5.24844C15.7556 4.82845 16.4444 4.57473 17.163 4.51415C17.8815 4.45356 18.6031 4.58835 19.2514 4.90425C19.8996 5.22016 20.4504 5.70543 20.8454 6.30872C21.2405 6.912 21.4651 7.61086 21.4955 8.33134C21.5259 9.05182 21.361 9.76712 21.0182 10.4015C20.6754 11.036 20.1674 11.5659 19.5481 11.9353C18.9288 12.3047 18.2211 12.4998 17.5 12.5H2C1.60218 12.5 1.22064 12.342 0.93934 12.0607C0.658035 11.7794 0.5 11.3978 0.5 11C0.5 10.6022 0.658035 10.2206 0.93934 9.93934C1.22064 9.65804 1.60218 9.5 2 9.5H17.5C17.7652 9.5 18.0196 9.39464 18.2071 9.20711C18.3946 9.01957 18.5 8.76522 18.5 8.5C18.5 8.23478 18.3946 7.98043 18.2071 7.79289C18.0196 7.60536 17.7652 7.5 17.5 7.5ZM12.583 17.9C12.6551 18.0652 12.7705 18.2079 12.9171 18.3129C13.0636 18.4179 13.2358 18.4813 13.4154 18.4965C13.5951 18.5116 13.7755 18.4779 13.9375 18.399C14.0996 18.32 14.2373 18.1987 14.336 18.0479C14.4348 17.8971 14.491 17.7224 14.4986 17.5423C14.5062 17.3622 14.465 17.1834 14.3794 17.0248C14.2937 16.8662 14.1668 16.7337 14.012 16.6413C13.8572 16.5489 13.6803 16.5001 13.5 16.5H7C6.60218 16.5 6.22064 16.342 5.93934 16.0607C5.65804 15.7794 5.5 15.3978 5.5 15C5.5 14.6022 5.65804 14.2206 5.93934 13.9393C6.22064 13.658 6.60218 13.5 7 13.5H13.5C14.2212 13.5 14.9289 13.6949 15.5483 14.0642C16.1678 14.4335 16.6759 14.9634 17.0188 15.5978C17.3618 16.2322 17.5268 16.9475 17.4965 17.668C17.4662 18.3886 17.2417 19.0875 16.8467 19.6909C16.4517 20.2942 15.901 20.7796 15.2527 21.0956C14.6045 21.4116 13.8828 21.5464 13.1642 21.4859C12.4456 21.4253 11.7567 21.1716 11.1705 20.7516C10.5843 20.3316 10.1225 19.761 9.834 19.1C9.75095 18.9188 9.70483 18.723 9.69834 18.5238C9.69185 18.3246 9.72511 18.1261 9.79619 17.9399C9.86727 17.7537 9.97473 17.5836 10.1123 17.4394C10.2499 17.2952 10.4148 17.1799 10.5974 17.1002C10.7801 17.0204 10.9768 16.9779 11.1761 16.9751C11.3753 16.9722 11.5732 17.0091 11.758 17.0835C11.9429 17.158 12.111 17.2686 12.2527 17.4087C12.3943 17.5489 12.5066 17.7159 12.583 17.9Z" fill="#C5C5C5"/>
</svg>
